<?xml version="1.0" encoding="UTF-8"?>
<svg version="1.1" xmlns="http://www.w3.org/2000/svg" width="512" height="512">
<path d="M0 0 C1.94132813 -0.04253906 1.94132813 -0.04253906 3.921875 -0.0859375 C14.44107291 0.55550704 23.81061488 6.62665987 32.75 11.6875 C34.02478293 12.40110466 35.30002022 13.11389819 36.57568359 13.82592773 C39.19300997 15.28817577 41.80792366 16.75459989 44.42089844 18.22460938 C49.12023717 20.86674844 53.83517235 23.4803692 58.55029297 26.09423828 C65.23219652 29.79877432 71.90725781 33.51563637 78.58398438 37.22949219 C91.29458597 44.29878816 104.01268306 51.35397345 116.75 58.375 C129.48445308 65.39444794 142.19957161 72.44824725 154.90722656 79.51611328 C160.52046138 82.63758348 166.13529721 85.75617131 171.75 88.875 C178.47734574 92.61187437 185.20438199 96.3492985 191.9296875 100.08984375 C194.1614199 101.3307983 196.39319074 102.57168371 198.625 103.8125 C199.72271729 104.42287109 200.82043457 105.03324219 201.95141602 105.66210938 C207.95211881 108.99607559 213.95849722 112.31929319 219.97265625 115.62890625 C220.6186377 115.98456161 221.26461914 116.34021698 221.93017578 116.70664978 C225.0381453 118.41765663 228.14691996 120.12716344 231.25732422 121.83374023 C236.83153716 124.9004709 242.38928119 127.99436208 247.91015625 131.15625 C248.86672119 131.70345703 249.82328613 132.25066406 250.80883789 132.81445312 C254.96821449 135.47339254 254.96821449 135.47339254 256.25 137.375 C256.57317227 139.98762232 256.7180171 142.35739469 256.71875 144.97265625 C256.72636353 145.72155624 256.73397705 146.47045624 256.74182129 147.24205017 C256.75262721 148.82987136 256.75547336 150.41776365 256.75097656 152.00561523 C256.75001289 154.40538839 256.79143727 156.80186781 256.8359375 159.20117188 C256.91752319 169.47587753 255.78585822 176.70945634 249.1796875 184.9609375 C242.68510587 190.61591542 236.00735687 194.18807046 227.2734375 194.53125 C223.86747627 194.929047 222.42554008 195.78048399 220.23046875 198.41015625 C219.27466243 199.73504956 218.34476065 201.07890288 217.4375 202.4375 C216.93613525 203.14616211 216.43477051 203.85482422 215.91821289 204.58496094 C214.33730607 206.83215128 212.79254215 209.10134706 211.25 211.375 C210.21508255 212.86955775 209.17864725 214.36306571 208.140625 215.85546875 C205.87411433 219.12376022 203.63165459 222.40717729 201.40991211 225.70605469 C200.25 227.375 200.25 227.375 198.70552063 229.02302456 C196.74086868 232.19770518 196.80243788 235.05244562 196.80175781 238.67555237 C196.78415437 239.78150541 196.78415437 239.78150541 196.7661953 240.90980095 C196.73079808 243.38205627 196.71688032 245.85395236 196.703125 248.32641602 C196.68268781 250.09912392 196.66112471 251.87181915 196.63851929 253.64450073 C196.57023161 259.47253392 196.53416306 265.30058953 196.5 271.12890625 C196.48653955 273.14059994 196.4729281 275.15229263 196.45916748 277.1639843 C196.40377893 285.5425505 196.35610765 293.92109251 196.33004761 302.29980564 C196.29278014 314.27228632 196.21119604 326.24247216 196.06491852 338.21413475 C195.96543167 346.64842303 195.91670185 355.08210758 195.90483856 363.51696914 C195.89653227 368.54481313 195.86720306 373.57032947 195.78381348 378.59753609 C194.50840256 406.1914076 194.50840256 406.1914076 206.84423828 429.85020447 C207.40655151 430.41906309 207.96886475 430.98792171 208.54821777 431.57401848 C211.55424179 434.75526789 213.97596864 438.37185296 216.5 441.9375 C217.39850626 443.14901989 218.299336 444.35882214 219.203125 445.56640625 C221.25 448.375 221.25 448.375 222.25 450.375 C223.44496094 450.41238281 224.63992188 450.44976562 225.87109375 450.48828125 C245.85509603 451.24849655 245.85509603 451.24849655 251.078125 456.05859375 C255.69433614 461.24643852 256.4247079 464.76920435 256.48828125 471.671875 C256.496353 472.49826477 256.50442474 473.32465454 256.51274109 474.17608643 C256.52658371 475.92791648 256.53730507 477.67977352 256.54516602 479.43164062 C256.56234417 482.10078696 256.60622289 484.76868331 256.65039062 487.4375 C256.66052082 489.1406159 256.6690359 490.84374233 256.67578125 492.546875 C256.69328934 493.34083679 256.71079742 494.13479858 256.72883606 494.95281982 C256.70833587 500.23544693 255.71373125 503.16572824 252.25 507.375 C247.03660407 512.07977194 243.08111828 512.52199802 236.27633953 512.50642776 C235.03795406 512.50950672 235.03795406 512.50950672 233.77455071 512.51264787 C230.98410042 512.5183413 228.19369912 512.51685774 225.40324402 512.51544189 C223.39202785 512.51802418 221.38081219 512.52103696 219.36959726 512.5244453 C213.82398841 512.53253448 208.27839248 512.53430593 202.73277843 512.53504276 C196.75924192 512.53688998 190.78571218 512.54443559 184.81217957 512.55117798 C171.06031924 512.56548443 157.30846069 512.57128945 143.55659474 512.57586992 C136.76315921 512.57820484 129.96972453 512.58180736 123.17628965 512.5855653 C99.92838807 512.59840116 76.68048696 512.60912066 53.4325819 512.6125679 C51.97290558 512.61278954 50.51322926 512.61301132 49.05355294 512.61323325 C47.59032308 512.61345389 46.12709322 512.61367438 44.66386336 512.6138947 C41.72830148 512.61433726 38.79273961 512.61478437 35.85717773 512.61523438 C35.12932771 512.61534377 34.40147769 512.61545316 33.65157161 512.61556586 C10.04466228 512.61919746 -13.56221636 512.63512121 -37.16911393 512.65842474 C-62.11921028 512.68300925 -87.06928909 512.69674008 -112.01939791 512.69793582 C-114.7571762 512.69810728 -117.49495449 512.69832271 -120.23273277 512.69857025 C-120.90686617 512.69862602 -121.58099956 512.69868179 -122.27556124 512.69873925 C-133.13374656 512.69989085 -143.99190044 512.7109221 -154.85007514 512.72545731 C-165.7595251 512.73980887 -176.66893274 512.74281394 -187.57838944 512.73501733 C-193.49094623 512.73110019 -199.40339699 512.7320922 -205.31594086 512.74607468 C-210.72498355 512.75874981 -216.13383985 512.75767255 -221.54288205 512.74548396 C-223.50318402 512.74351585 -225.46349891 512.7466564 -227.42378268 512.75532833 C-230.08235563 512.76634786 -232.74026226 512.7589847 -235.39881611 512.7469368 C-236.16511706 512.75453199 -236.93141801 512.76212718 -237.7209402 512.76995254 C-243.16741419 512.71643697 -247.3565386 511.60927632 -251.39453125 507.83984375 C-255.3997669 502.6022279 -255.92856217 499.56230629 -255.98828125 493.078125 C-256.00038887 491.83854034 -256.00038887 491.83854034 -256.01274109 490.57391357 C-256.02658371 488.82208352 -256.03730507 487.07022648 -256.04516602 485.31835938 C-256.06234417 482.64921304 -256.10622289 479.98131669 -256.15039062 477.3125 C-256.16052082 475.6093841 -256.1690359 473.90625767 -256.17578125 472.203125 C-256.19328934 471.40916321 -256.21079742 470.61520142 -256.22883606 469.79718018 C-256.20832372 464.51142163 -255.20237246 461.59505274 -251.75 457.375 C-247.74405952 453.47732818 -243.38044127 451.36476018 -237.67260742 451.38085938 C-236.96080322 451.42791016 -236.24899902 451.47496094 -235.515625 451.5234375 C-227.34435808 452.15499668 -227.34435808 452.15499668 -220.05810547 449.05615234 C-216.80660753 445.35915485 -214.5144782 441.0683451 -212.15087891 436.77294922 C-209.63027094 432.45830797 -206.60016601 428.50813651 -203.625 424.5 C-202.51569057 422.98362469 -201.40872022 421.46553394 -200.3046875 419.9453125 C-199.83530762 419.30352051 -199.36592773 418.66172852 -198.88232422 418.00048828 C-196.44339796 414.49933024 -196.57773084 411.44106625 -196.54226685 407.30822754 C-196.53224007 406.57192879 -196.52221328 405.83563004 -196.51188266 405.07701921 C-196.47965877 402.59630204 -196.45480887 400.11556903 -196.43017578 397.63476562 C-196.40918486 395.86074024 -196.38793854 394.08671786 -196.36645508 392.31269836 C-196.17814201 376.06330577 -196.07573543 359.81288564 -195.99431038 343.56264496 C-195.93289047 331.56207888 -195.82964515 319.56340331 -195.67161572 307.56371355 C-195.5641371 299.11594852 -195.50719137 290.66869951 -195.48617923 282.22028303 C-195.47217492 277.18173347 -195.43625708 272.14565539 -195.344944 267.10786438 C-193.88124638 240.88691548 -193.88124638 240.88691548 -204.8526783 218.12515259 C-205.95813714 217.00339788 -207.08581293 215.90287793 -208.23965836 214.83095741 C-210.38162063 212.7661227 -211.9749213 210.40817806 -213.609375 207.93359375 C-214.104375 207.22912109 -214.599375 206.52464844 -215.109375 205.79882812 C-215.79773438 204.8155957 -215.79773438 204.8155957 -216.5 203.8125 C-219.39463651 199.3999164 -219.39463651 199.3999164 -222.75 195.375 C-224.76684039 195.07587977 -226.78881183 194.81110463 -228.8125 194.5625 C-238.40556983 193.11567635 -244.58594844 189.92087709 -250.75 182.375 C-256.46448461 174.41818608 -256.55919299 166.35811463 -256.45678711 156.94165039 C-256.43738454 154.54825707 -256.47721993 152.16054834 -256.52148438 149.76757812 C-256.52177446 148.23437157 -256.51864147 146.7011597 -256.51171875 145.16796875 C-256.53464241 144.10536079 -256.53464241 144.10536079 -256.55802917 143.02128601 C-256.46313271 138.9794276 -255.90075602 137.53103611 -253.05932617 134.59008789 C-250.10001766 132.60928331 -247.18884573 130.79807035 -244.0390625 129.140625 C-242.96793213 128.57158447 -241.89680176 128.00254395 -240.79321289 127.41625977 C-239.66520264 126.82514404 -238.53719238 126.23402832 -237.375 125.625 C-235.59782584 124.68293123 -233.8221401 123.73810025 -232.04658508 122.79298401 C-230.31312687 121.87035603 -228.57869025 120.94956705 -226.84423828 120.02880859 C-223.13789497 118.04784208 -219.46578036 116.0143132 -215.8125 113.9375 C-208.87590236 110.0021984 -201.91064572 106.12019197 -194.9375 102.25 C-193.79289307 101.61465332 -192.64828613 100.97930664 -191.46899414 100.32470703 C-189.70180712 99.34382003 -187.9345949 98.36297856 -186.16731262 97.38226318 C-181.90849809 95.01875346 -177.65119069 92.65254474 -173.39453125 90.28515625 C-171.59243002 89.28311939 -169.79031149 88.28111365 -167.9881897 87.27911377 C-166.30732791 86.34438026 -164.62668257 85.40925754 -162.94604492 84.47412109 C-160.87640792 83.32363091 -158.80462904 82.1769832 -156.73046875 81.03466797 C-154.72047038 79.91540446 -152.72312158 78.77315735 -150.73828125 77.60986328 C-149.78308594 77.05927246 -148.82789063 76.50868164 -147.84375 75.94140625 C-146.58594727 75.1999939 -146.58594727 75.1999939 -145.30273438 74.44360352 C-142.22889341 73.15685888 -140.05341703 73.03648431 -136.75 73.375 C-133.42725596 75.83094125 -131.97381992 77.3006644 -131.125 81.375 C-131.93983778 85.28622134 -133.69687635 86.99165688 -136.75 89.375 C-140.65564261 91.82074778 -144.69544347 93.99995347 -148.75 96.1875 C-149.94856041 96.84262666 -151.14663042 97.49865123 -152.34423828 98.15551758 C-154.86031841 99.53407126 -157.37882682 100.90802535 -159.89941406 102.27832031 C-165.55510348 105.35468614 -171.19271352 108.46379952 -176.83007812 111.57357788 C-178.53915333 112.5152023 -180.24999978 113.45360973 -181.9609375 114.3918457 C-192.63428893 120.26078624 -203.16868031 126.32853161 -213.75 132.375 C-72.51 132.375 68.73 132.375 214.25 132.375 C195.72841185 121.89301998 195.72841185 121.89301998 177.125 111.5625 C175.9095904 110.89345143 174.69426095 110.22425727 173.47900391 109.55493164 C170.97980897 108.17862268 168.48028901 106.80290721 165.98046875 105.42773438 C159.85963776 102.06023773 153.74211658 98.68673801 147.625 95.3125 C147.02486084 94.98149292 146.42472168 94.65048584 145.80639648 94.30944824 C133.72108797 87.64295228 121.65469477 80.9426024 109.59277344 74.23388672 C103.97953862 71.11241652 98.36470279 67.99382869 92.75 64.875 C86.02265426 61.13812563 79.29561801 57.4007015 72.5703125 53.66015625 C70.3385801 52.4192017 68.10680926 51.17831629 65.875 49.9375 C64.77728271 49.32712891 63.67956543 48.71675781 62.54858398 48.08789062 C56.54788119 44.75392441 50.54150278 41.43070681 44.52734375 38.12109375 C43.55837158 37.5876107 43.55837158 37.5876107 42.56982422 37.04335022 C39.4618547 35.33234337 36.35308004 33.62283656 33.24267578 31.91625977 C26.72352035 28.32965587 20.27071451 24.66016839 13.88647461 20.83789062 C7.30805082 17.18774567 1.71428746 16.29119245 -5.75 17.375 C-10.72450206 19.16330201 -15.18454582 21.74892745 -19.75 24.375 C-21.41066597 25.30870235 -23.072181 26.24089559 -24.734375 27.171875 C-28.5998158 29.34399999 -32.45602457 31.53169827 -36.30859375 33.7265625 C-43.13244917 37.604543 -49.99920699 41.40275922 -56.875 45.1875 C-57.47475647 45.51768127 -58.07451294 45.84786255 -58.69244385 46.18804932 C-61.14628196 47.53877309 -63.60023543 48.88928651 -66.05450439 50.23922729 C-70.65051291 52.76775846 -75.24203777 55.3043188 -79.83203125 57.84375 C-81.81155014 58.93832505 -83.79111605 60.03281501 -85.77069092 61.12728882 C-87.03477777 61.82647114 -88.29865788 62.52602739 -89.56231689 63.22598267 C-91.32087831 64.19994201 -93.08034414 65.17226782 -94.83984375 66.14453125 C-95.83878662 66.69729736 -96.83772949 67.25006348 -97.86694336 67.81958008 C-106.32636995 72.3834726 -106.32636995 72.3834726 -109.875 72.3125 C-113.25816065 71.20929544 -114.70295649 70.28810038 -116.75 67.375 C-117.38538516 63.64211221 -117.1903443 62.02133523 -115.0480957 58.87695312 C-112.64400164 56.25959884 -110.62184695 54.90862831 -107.48046875 53.28125 C-106.43914795 52.73291504 -105.39782715 52.18458008 -104.32495117 51.61962891 C-102.64816284 50.7560376 -102.64816284 50.7560376 -100.9375 49.875 C-98.56139928 48.62442067 -96.18641561 47.37189195 -93.8125 46.1171875 C-93.21330246 45.8018808 -92.61410492 45.4865741 -91.99674988 45.16171265 C-86.41322385 42.21749671 -80.91845057 39.12987782 -75.4375 36 C-63.65486974 29.2927734 -51.78760104 22.74473105 -39.90473938 16.21740723 C-36.16132335 14.15873419 -32.43060624 12.07869138 -28.70703125 9.984375 C-27.79719482 9.47535645 -26.8873584 8.96633789 -25.94995117 8.44189453 C-24.29712345 7.51636115 -22.64726287 6.58549746 -21.0012207 5.64794922 C-14.09919406 1.79817075 -7.98106109 0.07886424 0 0 Z M-240.75 149.375 C-241.55732985 162.53001508 -241.55732985 162.53001508 -236.28515625 173.99609375 C-231.57011411 178.06555555 -228.3305017 178.52138554 -222.33667374 178.50922108 C-221.55951173 178.51157331 -220.78234973 178.51392554 -219.98163736 178.51634905 C-217.34990676 178.52306198 -214.71822528 178.52258014 -212.08648682 178.52217102 C-210.19162792 178.52546822 -208.29676974 178.52919348 -206.40191245 178.5333125 C-201.17328982 178.54335699 -195.94467868 178.54705322 -190.71604776 178.54970181 C-185.08537206 178.5535976 -179.45470552 178.5631764 -173.82403564 178.57191467 C-160.21552841 178.5916993 -146.6070204 178.60174768 -132.99850237 178.61064246 C-126.59571892 178.61502197 -120.1929363 178.62038963 -113.7901535 178.62563133 C-92.51575496 178.64264537 -71.24135737 178.65716564 -49.96695328 178.66438007 C-48.59066887 178.66485483 -47.21438447 178.66533072 -45.83810006 178.66580774 C-44.81431247 178.6661623 -44.81431247 178.6661623 -43.76984229 178.66652403 C-40.3117308 178.66772525 -36.8536193 178.66894069 -33.39550781 178.67016602 C-32.7092305 178.67040617 -32.02295319 178.67064632 -31.31587959 178.67089374 C-9.06032652 178.67878836 13.19517329 178.70222295 35.4507031 178.73472196 C58.97102349 178.76900531 82.49130121 178.78872867 106.01165032 178.79202431 C118.83667595 178.79419268 131.66162329 178.80298909 144.48662567 178.82848549 C155.40648389 178.85014381 166.32624483 178.85826694 177.24612209 178.84851871 C182.82048885 178.8439599 188.39465467 178.84595177 193.96899414 178.86528015 C199.06910909 178.88281197 204.16887503 178.88199568 209.26899317 178.86638286 C211.11694598 178.86399154 212.96492233 178.86840858 214.812839 178.88021151 C217.32009019 178.89523752 219.82608985 178.88572319 222.33330917 178.86998463 C223.41580686 178.88531794 223.41580686 178.88531794 224.52017319 178.90096101 C229.54829902 178.8318192 232.32934485 177.44482934 236.25 174.375 C236.8275 173.9625 237.405 173.55 238 173.125 C242.79342952 166.41419867 241.25 156.92875778 241.25 149.375 C82.19 149.375 -76.87 149.375 -240.75 149.375 Z M-202.75 194.375 C-200.77 197.345 -198.79 200.315 -196.75 203.375 C-195.6206604 205.61277222 -195.6206604 205.61277222 -194.46850586 207.89575195 C-191.45026844 213.61121674 -188.33996945 219.02901425 -182.0413208 221.39056396 C-175.36230334 222.81196783 -168.71667489 222.83991616 -161.91479492 222.64624023 C-158.31198154 222.56248795 -154.74756331 222.66566934 -151.14648438 222.78710938 C-139.66438441 223.05348759 -139.66438441 223.05348759 -129.41278076 218.62408447 C-125.4943763 214.53821181 -122.61542282 209.94929574 -120.08946228 204.90083313 C-118.17055217 201.28233128 -115.92078221 197.84825154 -113.75 194.375 C-143.12 194.375 -172.49 194.375 -202.75 194.375 Z M-104.60274065 208.44499981 C-106.17153353 211.08413328 -107.94354479 213.56382866 -109.73046875 216.05859375 C-110.80337707 217.64059262 -111.87257847 219.22511384 -112.9375 220.8125 C-114.0342991 222.43677704 -115.13190829 224.06050747 -116.23046875 225.68359375 C-116.69348389 226.37251709 -117.15649902 227.06144043 -117.63354492 227.77124023 C-118.75 229.375 -118.75 229.375 -119.75 230.375 C-119.87641266 232.72236944 -119.93786165 235.04155461 -119.95773315 237.39071655 C-119.96775993 238.13362241 -119.97778672 238.87652828 -119.98811734 239.64194643 C-120.020404 242.15107484 -120.0452148 244.6602189 -120.06982422 247.16943359 C-120.09081013 248.96139317 -120.11205646 250.75334972 -120.13354492 252.54530334 C-120.32203121 268.97481793 -120.4243009 285.40535911 -120.50568962 301.83571434 C-120.56708294 313.96997992 -120.67026742 326.10237291 -120.82838428 338.23577058 C-120.93590099 346.77609972 -120.99281568 355.31591826 -121.01382077 363.85689223 C-121.02782078 368.95080988 -121.06370492 374.04228175 -121.155056 379.13544846 C-122.63107551 406.52716382 -122.63107551 406.52716382 -110.71975708 430.0453186 C-110.10779134 430.65111 -109.4958256 431.2569014 -108.86531544 431.88105011 C-107.00496332 434.0743991 -105.70061208 436.08532942 -104.27868938 438.56432343 C-99.20317154 447.68612772 -99.20317154 447.68612772 -90.67279434 452.96641731 C-85.84531625 453.80140612 -81.03416588 453.70027421 -76.15258789 453.60644531 C-74.29990083 453.63280426 -72.44730427 453.66634152 -70.59486389 453.70645142 C-65.59300555 453.79204609 -60.59702543 453.77084697 -55.59485555 453.72439671 C-51.40734182 453.69586696 -47.22086831 453.72148507 -43.03339094 453.74724078 C-33.14861022 453.80769876 -23.26663944 453.78283341 -13.38208008 453.70117188 C-3.21070817 453.61835458 6.95398468 453.66587562 17.12490267 453.78005528 C25.88335269 453.87453196 34.63976476 453.89451903 43.39863211 453.8540771 C48.61874974 453.83027919 53.83530172 453.83236795 59.05506706 453.90348053 C81.20735969 455.4490006 81.20735969 455.4490006 100.51799011 447.25260925 C103.53669041 443.36822249 105.43732615 439.31793716 107.16952705 434.73827362 C109.00183738 430.73053731 112.00331545 427.81976892 114.99609375 424.64453125 C123.47641463 413.77250944 121.70753673 399.23483026 121.3626709 386.16357422 C121.24577936 381.26834998 121.22076786 376.37169285 121.19200134 371.47529602 C121.17115595 368.88078834 121.12976828 366.28634463 121.06544495 363.69255066 C121.04650681 362.52645767 121.02756866 361.36036469 121.00805664 360.15893555 C120.98296524 359.13543503 120.95787384 358.11193451 120.93202209 357.05741882 C121.30059994 353.94814571 122.09744916 352.6127129 124.25 350.375 C126.1875 349.87890625 126.1875 349.87890625 128.25 349.9375 C129.2709375 349.93943359 129.2709375 349.93943359 130.3125 349.94140625 C132.86707216 350.51309478 133.64993755 351.30884093 135.25 353.375 C135.64872742 355.86174011 135.64872742 355.86174011 135.68237305 358.85620117 C135.70216721 359.97713669 135.72196136 361.0980722 135.74235535 362.25297546 C135.75194023 364.06714714 135.75194023 364.06714714 135.76171875 365.91796875 C135.77966995 367.15670242 135.79762115 368.3954361 135.81611633 369.67170715 C135.86115077 372.9612946 135.8934265 376.25068459 135.91955566 379.54046631 C135.94935939 382.89885921 135.99572876 386.25702044 136.04101562 389.61523438 C136.12861975 396.20184196 136.18855701 402.78788805 136.25 409.375 C151.1 409.375 165.95 409.375 181.25 409.375 C181.25 352.285 181.25 295.195 181.25 236.375 C166.4 236.375 151.55 236.375 136.25 236.375 C136.17652344 245.95982422 136.17652344 245.95982422 136.1015625 255.73828125 C136.06618703 259.78061504 136.03023326 263.822927 135.9921875 267.86523438 C135.93182338 274.28471797 135.87362905 280.70417093 135.828125 287.1237793 C135.79131482 292.29801203 135.74496652 297.47207862 135.69193649 302.64616966 C135.67336983 304.6225411 135.65827032 306.59894818 135.64665604 308.5753727 C135.62983245 311.33858975 135.60080695 314.10142439 135.56884766 316.86450195 C135.56560738 318.0966468 135.56560738 318.0966468 135.56230164 319.35368347 C135.50515575 323.2082086 135.43766454 325.09350318 133.25 328.375 C129.9375 329.375 129.9375 329.375 126.25 329.375 C123.52699685 327.41693427 121.57849143 325.85018954 120.82434082 322.46344948 C120.68571587 320.113944 120.71481657 317.81636767 120.796875 315.46411133 C120.8072731 314.57545883 120.8176712 313.68680634 120.8283844 312.77122498 C120.85296432 310.84335748 120.88842314 308.9156048 120.9335022 306.98810768 C121.00080973 303.92012233 121.02987768 300.8539742 121.04760742 297.7853241 C121.10194562 289.06222351 121.2007684 280.34079191 121.38330078 271.61938477 C121.49238444 266.27682122 121.53610905 260.93683368 121.54089355 255.59320641 C121.55509419 253.57306147 121.59304791 251.55291822 121.65686035 249.53373146 C122.12738615 234.32492228 118.74306493 225.65711034 108.76021576 214.1463623 C106.80440652 211.85235448 105.08804212 209.42270484 103.390625 206.93359375 C102.895625 206.22912109 102.400625 205.52464844 101.890625 204.79882812 C101.43171875 204.14333984 100.9728125 203.48785156 100.5 202.8125 C97.60536349 198.3999164 97.60536349 198.3999164 94.25 194.375 C91.84935434 194.24190669 89.47598995 194.17376492 87.07328796 194.14707947 C86.31319248 194.13493599 85.55309701 194.12279251 84.76996833 194.11028105 C82.20305669 194.07092756 79.6361105 194.03911551 77.0690918 194.00756836 C75.23621826 193.98167598 73.40334782 193.95556305 71.57048035 193.929245 C54.79886556 193.69789554 38.02598192 193.56775225 21.25314617 193.46387386 C9.97527335 193.3924584 -1.30065113 193.29093388 -12.57739258 193.11303711 C-22.41278217 192.95788936 -32.24681655 192.85935755 -42.08341283 192.82891375 C-47.28884744 192.81095951 -52.49065593 192.7655653 -57.69497108 192.65275383 C-62.6005937 192.54747566 -67.50091586 192.51877305 -72.40752983 192.54698372 C-74.20075583 192.54419448 -75.99419249 192.5142992 -77.7864151 192.45425415 C-91.97706167 192.00318211 -97.46117001 196.30705264 -104.60274065 208.44499981 Z M114.25 194.375 C116.56 198.005 118.87 201.635 121.25 205.375 C122.31939819 207.49615234 122.31939819 207.49615234 123.41040039 209.66015625 C126.19077327 214.89046749 129.08220543 219.31312551 134.90692139 221.265625 C141.60257139 222.55643152 148.26709442 222.59742887 155.06469727 222.44042969 C158.68539671 222.37503799 162.27386669 222.48040523 165.89257812 222.6015625 C177.25579937 222.94322628 177.25579937 222.94322628 187.47296143 218.74804688 C191.82163316 214.20743358 194.44540721 208.951109 197.25 203.375 C199.23 200.405 201.21 197.435 203.25 194.375 C173.88 194.375 144.51 194.375 114.25 194.375 Z M-180.75 236.375 C-180.75 293.465 -180.75 350.555 -180.75 409.375 C-165.9 409.375 -151.05 409.375 -135.75 409.375 C-135.75 352.285 -135.75 295.195 -135.75 236.375 C-150.6 236.375 -165.45 236.375 -180.75 236.375 Z M-191.75 435.375 C-192.73602329 436.78504826 -193.72487399 438.19313195 -194.71875 439.59765625 C-195.56734091 440.87439984 -196.41122803 442.15428439 -197.25 443.4375 C-197.69085938 444.09943359 -198.13171875 444.76136719 -198.5859375 445.44335938 C-200.77055864 448.1976777 -200.77055864 448.1976777 -201.75 451.375 C-173.04 451.375 -144.33 451.375 -114.75 451.375 C-116.18690552 447.78273621 -117.02503506 445.71809434 -119.2109375 442.81640625 C-119.68273437 442.18283203 -120.15453125 441.54925781 -120.640625 440.89648438 C-121.13046875 440.25001953 -121.6203125 439.60355469 -122.125 438.9375 C-123.09239473 437.64807146 -124.05855855 436.35771843 -125.0234375 435.06640625 C-125.45060059 434.50123291 -125.87776367 433.93605957 -126.31787109 433.35375977 C-127.75 431.375 -127.75 431.375 -129.20263672 428.20288086 C-132.1090592 424.97640093 -132.71476174 424.9046775 -136.85058594 424.53515625 C-138.97771923 424.4684604 -141.10619649 424.43828529 -143.234375 424.4375 C-144.36393616 424.42227295 -145.49349731 424.4070459 -146.6572876 424.39135742 C-149.04780238 424.36974806 -151.43850604 424.36405243 -153.82910156 424.37304688 C-157.47524415 424.37498683 -161.11289266 424.29190519 -164.7578125 424.203125 C-167.08331583 424.19270626 -169.40884834 424.18733469 -171.734375 424.1875 C-173.35977203 424.13831421 -173.35977203 424.13831421 -175.01800537 424.08813477 C-183.99434481 424.25071072 -187.11102779 428.03830467 -191.75 435.375 Z M119.45123291 443.10678101 C118.25 445.375 118.25 445.375 116.59906006 447.54483032 C115.05221815 449.2643743 115.05221815 449.2643743 115.25 451.375 C143.96 451.375 172.67 451.375 202.25 451.375 C198.94361156 445.56044495 198.94361156 445.56044495 195.3046875 440.04296875 C194.78519531 439.30755859 194.26570313 438.57214844 193.73046875 437.81445312 C193.20066406 437.07130859 192.67085938 436.32816406 192.125 435.5625 C191.31869141 434.4187793 191.31869141 434.4187793 190.49609375 433.25195312 C187.22910962 427.87977168 187.22910962 427.87977168 182.12957764 424.99990845 C180.81391815 424.91608414 180.81391815 424.91608414 179.47167969 424.83056641 C178.47593933 424.76616364 177.48019897 424.70176086 176.45428467 424.63540649 C171.85437622 424.41280545 167.254984 424.24898784 162.65136719 424.12548828 C160.23689669 424.04250902 157.82342738 423.92007763 155.41308594 423.75634766 C136.52771735 422.49506925 128.04165243 425.77410749 119.45123291 443.10678101 Z M-238.75 467.375 C-240.99967291 470.74950937 -240.99707022 471.90008743 -240.98046875 475.84765625 C-240.97853516 476.91177734 -240.97660156 477.97589844 -240.97460938 479.07226562 C-240.96236328 480.18279297 -240.95011719 481.29332031 -240.9375 482.4375 C-240.93685547 483.55189453 -240.93621094 484.66628906 -240.93554688 485.81445312 C-241.16255235 491.26567263 -241.16255235 491.26567263 -239.75 496.375 C-81.35 496.375 77.05 496.375 240.25 496.375 C242.30217837 492.27064327 241.43489112 486.94824872 241.4375 482.4375 C241.44974609 481.32697266 241.46199219 480.21644531 241.47460938 479.07226562 C241.47654297 478.00814453 241.47847656 476.94402344 241.48046875 475.84765625 C241.48457764 474.87062744 241.48868652 473.89359863 241.49291992 472.88696289 C241.42547166 470.12683677 241.42547166 470.12683677 239.25 467.375 C236.60491437 467.07458801 234.19261748 466.97303692 231.54438782 466.99747658 C230.7356367 466.99311626 229.92688558 466.98875593 229.09362686 466.98426348 C226.35432576 466.97322121 223.61551902 466.98377063 220.8762207 466.99404907 C218.90426276 466.99059605 216.93230674 466.98583389 214.9603548 466.97986734 C209.51873048 466.96727885 204.07726285 466.97356319 198.63563776 466.98282599 C192.77599145 466.98958419 186.91637303 466.97915137 181.05673218 466.97088623 C169.56868417 466.95751205 158.0806948 466.960443 146.59264445 466.96912415 C137.26013386 466.97599178 127.92763671 466.97690356 118.59512329 466.9735527 C117.93287726 466.97332355 117.27063123 466.97309439 116.58831713 466.97285829 C113.90028142 466.97192433 111.21224572 466.97096914 108.52421002 466.969979 C83.29032819 466.96079477 58.0564784 466.96913384 32.82260151 466.98526969 C10.38659998 466.99950731 -12.04935048 466.99823347 -34.48535156 466.98388672 C-59.67204606 466.96783501 -84.85871221 466.96144602 -110.04541111 466.97072351 C-112.7286485 466.97168571 -115.41188589 466.97262423 -118.09512329 466.9735527 C-118.75584137 466.97378994 -119.41655946 466.97402717 -120.0972993 466.97427159 C-130.09021558 466.97768905 -140.08310727 466.97366537 -150.07601929 466.96611404 C-161.43443061 466.95771993 -172.7927797 466.95993502 -184.15118384 466.97595628 C-189.95184364 466.98386723 -195.75239949 466.98688277 -201.55305862 466.97700882 C-206.85523502 466.96811957 -212.15721039 466.9728987 -217.45936835 466.98894148 C-219.38530515 466.99231392 -221.31125868 466.99054061 -223.23718488 466.98331411 C-225.83983301 466.97429178 -228.44177751 466.9834448 -231.04438782 466.99747658 C-231.80543922 466.99045308 -232.56649061 466.98342958 -233.35060418 466.97619325 C-235.64845441 466.96572481 -235.64845441 466.96572481 -238.75 467.375 Z " fill="#000000" transform="translate(255.75,-0.375)"/>
<path d="M0 0 C22.357376 -0.73302872 44.53659899 6.75440981 61.109375 21.90625 C76.46060602 36.48189223 88.23443811 55.27846024 89.59887695 76.97021484 C90.19048792 104.93856418 84.42889342 127.74146814 64.94921875 148.6796875 C47.48390264 165.79407763 25.07255334 173.41494754 0.95336914 173.4050293 C-22.1305339 173.14083312 -43.27758933 163.36259317 -59.578125 147.15625 C-77.93230933 127.59913534 -83.50001873 103.45844824 -82.75732422 77.32373047 C-82.37474491 70.56135444 -80.84261869 64.5392916 -78.578125 58.15625 C-78.165625 56.97289062 -77.753125 55.78953125 -77.328125 54.5703125 C-68.48751615 31.81579086 -50.60400683 15.86981714 -28.65820312 6.01367188 C-19.47908464 2.2299789 -9.85223853 0.59710537 0 0 Z M-49.5859375 39.78125 C-64.06731923 57.04532861 -67.96115412 76.21044831 -66.578125 98.15625 C-64.74599666 114.35801234 -54.74566668 130.11912335 -42.6953125 140.68359375 C-26.46581504 153.41718118 -8.08291742 159.23124782 12.421875 157.15625 C31.0680753 154.54937764 47.5493365 145.22966877 59.234375 130.40625 C71.7582421 112.67736372 76.49243012 93.45121497 72.80078125 71.9296875 C68.17064697 52.38023164 56.45450464 36.71600791 39.421875 26.15625 C9.6101912 8.95870836 -25.99679781 14.89600374 -49.5859375 39.78125 Z " fill="#000000" transform="translate(252.578125,235.84375)"/>
<path d="M0 0 C4.10703441 0.85563217 5.55401113 2.24378009 8 5.625 C8.3125 9.4375 8.3125 9.4375 8 12.625 C9.546875 12.5321875 9.546875 12.5321875 11.125 12.4375 C16.63794356 12.70425533 19.63434388 14.38638166 23.6875 18.0625 C28.13712714 22.99316791 30.92324919 27.01227632 31.0390625 33.97265625 C30.79843213 37.49617234 30.59007845 39.87605427 28.375 42.6875 C25.01969514 44.01196244 22.57376708 44.07172088 19 43.625 C16.07286522 41.88454148 15.21061954 40.39285867 14.31640625 37.1328125 C13.80358558 34.63590633 13.36582603 32.14727424 13 29.625 C11.35 29.295 9.7 28.965 8 28.625 C8 36.875 8 45.125 8 53.625 C10.31 53.625 12.62 53.625 15 53.625 C21.1156262 56.09224834 26.06016658 59.6228401 29 65.625 C30.85610699 71.04483241 31.35427471 75.83952709 31.3125 81.5 C31.30404053 82.69363159 31.30404053 82.69363159 31.29541016 83.91137695 C31.11793113 92.48220799 29.59890023 98.81762924 23.59765625 105.1875 C18.88410681 109.42854204 14.07067332 110.10166609 8 110.625 C8.0825 111.511875 8.165 112.39875 8.25 113.3125 C8 116.625 8 116.625 6.5 119.5 C3.47084317 122.07478331 1.79349229 122.37045844 -2.09375 122.109375 C-4 121.625 -4 121.625 -6.5 119.5 C-8.19511045 116.25103831 -8.33609819 114.23805558 -8 110.625 C-9.175625 110.5425 -10.35125 110.46 -11.5625 110.375 C-17.61454469 109.59443593 -21.42705026 107.16220089 -25.75 102.9375 C-29.26564709 98.35439571 -30.67710661 93.02363659 -31.4375 87.375 C-30.85943785 83.74146646 -29.65873288 82.14001759 -27 79.625 C-23.94760881 78.45100339 -22.46209658 78.49604281 -19.3125 79.375 C-16.38808714 80.95576371 -15.30799808 82.67562131 -14.2890625 85.81640625 C-13.846054 87.39820718 -13.40855624 88.98156175 -12.9765625 90.56640625 C-12.02019494 93.12859611 -12.02019494 93.12859611 -8 94.625 C-8 86.375 -8 78.125 -8 69.625 C-10.64 69.295 -13.28 68.965 -16 68.625 C-21.90269372 66.52074904 -25.97643436 62.27391957 -28.97265625 56.87109375 C-32.66472914 48.09598097 -32.51593432 35.35497758 -29.75 26.3125 C-27.23468269 20.32253506 -23.55212287 16.93264767 -18 13.625 C-14.52674819 12.4672494 -11.63932552 12.55633348 -8 12.625 C-8.103125 11.573125 -8.20625 10.52125 -8.3125 9.4375 C-8 5.625 -8 5.625 -5.875 2.6875 C-3 0.625 -3 0.625 0 0 Z M-13.16015625 30.6875 C-15.40652458 34.27405836 -15.50543764 36.42192439 -15.4375 40.625 C-15.43621094 41.82125 -15.43492187 43.0175 -15.43359375 44.25 C-14.9684751 47.87038298 -14.29107507 49.79882123 -12 52.625 C-10.68 52.955 -9.36 53.285 -8 53.625 C-8 45.375 -8 37.125 -8 28.625 C-11.13614465 28.27971547 -11.13614465 28.27971547 -13.16015625 30.6875 Z M8 69.625 C8 77.875 8 86.125 8 94.625 C12.78504731 93.20721129 12.78504731 93.20721129 14.2890625 90.93359375 C15.25405503 87.8000191 15.34003127 84.96407045 15.375 81.6875 C15.40335937 80.48222656 15.43171875 79.27695312 15.4609375 78.03515625 C14.92109308 74.0412225 13.89886032 72.38258012 11 69.625 C10.01 69.625 9.02 69.625 8 69.625 Z " fill="#000000" transform="translate(256,261.375)"/>
<path d="M0 0 C8.8137279 6.31355867 14.98664304 14.20108538 17 25 C18.02978108 36.0107362 15.74849534 45.55364426 8.69921875 54.21875 C1.39657266 61.87393762 -7.12607291 65.87163112 -17.6875 66.25 C-27.89215549 66.09859562 -36.30740796 62.28688393 -43.75390625 55.37109375 C-50.96242873 47.58444416 -53.33704356 38.5299803 -53.2109375 28.1640625 C-52.50538723 17.58080852 -47.78221699 10.45950144 -40.3125 3.25 C-29.09754262 -6.01453001 -12.64801612 -7.06465765 0 0 Z M-32.875 18.9375 C-36.49158132 24.14963191 -37.94370523 28.6063971 -37 35 C-34.77715004 41.84536749 -30.89027944 45.85010873 -24.625 49.3125 C-18.28004881 50.97427293 -13.48362976 50.4161193 -7.82421875 47.26953125 C-3.48373077 44.24884904 -0.34900401 40.15074258 1 35 C1.62355795 28.66049417 0.66416377 24.26512148 -3 19 C-7.28114461 14.36698049 -11.58392715 12.23764651 -17.8125 11.625 C-23.88621109 11.80835732 -28.87755545 14.40081073 -32.875 18.9375 Z " fill="#000000" transform="translate(274,49)"/>
</svg>
